# xmcd CD database file
#
# Track frame offsets:
#	150
#	14106
#	31441
#	53184
#	66822
#	84018
#	99672
#	115709
#	134300
#	147490
#	160562
#	170496
#	184895
#	199473
#
# Disc length: 2815 seconds
#
# Revision: 3
# Processed by: cddbd v1.4PL0 Copyright (c) Steve Scherf et al.
# Submitted via: CDex 1.50
#
DISCID=c30afd0e
DTITLE=The Lost and Wandering Blues and Jazz Band - Hustlin' Dan
DYEAR=2002
DGENRE=Jazz
TTITLE0=The Joint Is Jumpin'
TTITLE1=Take it Easy Greasy
TTITLE2=Them Has Been Blues
TTITLE3=Tain't Good
TTITLE4=Yes Indeed He Do
TTITLE5=If I Had You
TTITLE6=How Ya Baby
TTITLE7=Hustlin' Dan
TTITLE8=Back in Your Own Backyard
TTITLE9=Who's Honey Are You
TTITLE10=Flat Foot Floogie
TTITLE11=Two Sleepy People
TTITLE12=He's Got Me Goin'
TTITLE13=Far Away Blues
EXTD=YEAR: 2002
EXTT0=
EXTT1=
EXTT2=
EXTT3=
EXTT4=
EXTT5=
EXTT6=
EXTT7=
EXTT8=
EXTT9=
EXTT10=
EXTT11=
EXTT12=
EXTT13=
PLAYORDER=
